<svg xmlns="http://www.w3.org/2000/svg" width="400" height="240" viewBox="0 0 400 240" fill="none"><defs><linearGradient id="sky" x1="0" y1="0" x2="0" y2="1"><stop offset="0" stop-color="#BFE6FF"/><stop offset="1" stop-color="#E8F7FF"/></linearGradient></defs><rect width="400" height="240" fill="url(#sky)"/><circle cx="336" cy="46" r="24" fill="#FFE9A8"/><ellipse cx="78" cy="52" rx="30" ry="14" fill="#ffffff" opacity="0.9"/><ellipse cx="108" cy="46" rx="22" ry="12" fill="#ffffff" opacity="0.9"/><path d="M0 152 Q90 112 200 150 T400 148 V240 H0 Z" fill="#8ED89A"/><path d="M0 182 Q120 150 260 186 T400 182 V240 H0 Z" fill="#6BC47A"/><path d="M150 240 Q190 196 205 200 Q220 196 250 240 Z" fill="#E7D3A9" opacity="0.7"/><rect x="168" y="150" width="74" height="58" rx="4" fill="#F5E6C8"/><rect x="168" y="150" width="74" height="10" fill="#E7D3A9"/><path d="M160 154 L205 116 L250 154 Z" fill="#E4572E"/><path d="M205 116 L250 154 L242 154 L205 124 Z" fill="#C4451F"/><rect x="196" y="176" width="22" height="32" rx="10" fill="#8A5A2B"/><circle cx="213" cy="192" r="1.6" fill="#FFD54A"/><rect x="176" y="168" width="16" height="16" rx="3" fill="#9FD8F5"/><rect x="222" y="168" width="16" height="16" rx="3" fill="#9FD8F5"/><g transform="translate(250 78) scale(0.62) translate(-80 -80)"><ellipse cx="80" cy="150" rx="46" ry="9" fill="#000000" opacity="0.10"/><rect x="71" y="90" width="18" height="54" rx="7" fill="#8A5A2B"/><rect x="71" y="90" width="7" height="54" rx="3" fill="#6E4522"/><circle cx="80" cy="66" r="40" fill="#5CCB5F"/><circle cx="50" cy="84" r="27" fill="#5CCB5F"/><circle cx="110" cy="84" r="27" fill="#5CCB5F"/><circle cx="80" cy="70" r="34" fill="#3FA84E" opacity="0.0"/><circle cx="68" cy="52" r="15" fill="#7EDC82" opacity="0.75"/><path d="M50 92 A40 40 0 0 0 110 92" stroke="#3FA84E" stroke-width="0" fill="none"/></g><g transform="translate(150 150) scale(0.5) translate(-80 -80)"><ellipse cx="80" cy="150" rx="40" ry="8" fill="#000000" opacity="0.10"/><ellipse cx="80" cy="130" rx="54" ry="20" fill="#5CCB5F"/><ellipse cx="80" cy="134" rx="54" ry="16" fill="#3FA84E" opacity="0.6"/><path d="M60 130 Q57 105 60 90" stroke="#3FA84E" stroke-width="5" fill="none" stroke-linecap="round"/><path d="M86 132 Q88 100 86 82" stroke="#3FA84E" stroke-width="5" fill="none" stroke-linecap="round"/><path d="M108 130 Q112 108 108 96" stroke="#3FA84E" stroke-width="5" fill="none" stroke-linecap="round"/><circle cx="60" cy="81" r="5.5" fill="#F06BA8"/><circle cx="67" cy="88" r="5.5" fill="#F06BA8"/><circle cx="60" cy="95" r="5.5" fill="#F06BA8"/><circle cx="53" cy="88" r="5.5" fill="#F06BA8"/><circle cx="60" cy="88" r="4.5" fill="#FFD54A"/><circle cx="86" cy="73" r="5.5" fill="#FFD54A"/><circle cx="93" cy="80" r="5.5" fill="#FFD54A"/><circle cx="86" cy="87" r="5.5" fill="#FFD54A"/><circle cx="79" cy="80" r="5.5" fill="#FFD54A"/><circle cx="86" cy="80" r="4.5" fill="#FFB703"/><circle cx="108" cy="87" r="5.5" fill="#8E6BFF"/><circle cx="115" cy="94" r="5.5" fill="#8E6BFF"/><circle cx="108" cy="101" r="5.5" fill="#8E6BFF"/><circle cx="101" cy="94" r="5.5" fill="#8E6BFF"/><circle cx="108" cy="94" r="4.5" fill="#FFD54A"/></g></svg>
